<svg xmlns="http://www.w3.org/2000/svg" viewBox="0 0 64 64" role="img" aria-label="Stylized S mark">
  <rect width="64" height="64" rx="12" fill="#0a0a0b"/>
  <path
    d="M43.6 12.4 47 17.8 34.2 25.2c-2.4 1.4-3.4 2.8-3 4.1.4 1.5 2.1 2.3 5.1 2.7l3.2.4c7.1.9 11.2 4.1 11.8 9.4.7 6.1-4.5 10.4-14.7 12.1L21 56.4l-4-5.3 15.9-2.8c4.6-.8 7.1-2.2 6.9-4.2-.2-1.7-2.2-2.5-5.7-3l-3.2-.4c-7-.9-10.8-4.2-11.3-9.1-.5-5.1 3.1-9.3 10.5-13.4l13.5-5.8Z"
    fill="#f4f1eb"
  />
  <path
    d="M19.5 11.1 34 8.3 29.6 18l-12.2 5.5 5.5-8.1-3.4-4.3Z"
    fill="#9b7cff"
  />
  <path
    d="m46 39.4-7.6 1.5-5.9-8.2 8.2 1.1 5.3 5.6Z"
    fill="#9b7cff"
    opacity=".92"
  />
  <path
    d="m16.9 48.9 11.6-2.1 4.2 5.5-12.1 3.1-3.7-6.5Z"
    fill="#9b7cff"
    opacity=".78"
  />
</svg>
